#!OML:ASF F:\VICON\USERDATA\INSTALL\rory3\rory3.ASF
:FULLY-SPECIFIED
:DEGREES
1
root -0.155528 17.0669 -19.492 -170.664 -85.7559 168.639
lowerback 33.3319 0.492591 6.78846
upperback 8.68618 2.31119 7.39871
thorax -7.4714 0.449296 3.45602
lowerneck -11.3239 -2.93413 -3.85958
upperneck 25.2027 -1.65738 -9.59552
head 9.85479 -2.44907 -2.94939
rclavicle -1.27222e-014 -3.65764e-014
rhumerus 8.96891 -9.64045 -66.8833
rradius 27.1959
rwrist 24.0605
rhand -5.92333 5.50324
rfingers 7.12502
rthumb 19.9061 -23.4973
lclavicle -1.27222e-014 -3.65764e-014
lhumerus -42.6672 0.30011 88.3564
lradius 52.3022
lwrist 12.9247
lhand -16.5152 48.6777
lfingers 7.12502
lthumb 9.70311 78.4342
rfemur -25.5378 13.7288 5.18899
rtibia 36.6338
rfoot -12.7593 -3.13521
rtoes -16.1445
lfemur -20.2963 6.18967 -20.5582
ltibia 58.8504
lfoot -12.6279 -1.31583
ltoes -28.0965
2
root -0.118022 17.0522 -19.393 -170.348 -86.0323 168.558
lowerback 33.2814 0.47089 6.65016
upperback 8.69116 2.24839 7.62845
thorax -7.47014 0.415142 3.79553
lowerneck -11.1876 -2.89224 -4.30778
upperneck 24.9027 -1.54739 -9.52224
head 9.73712 -2.41751 -2.82026
rclavicle -4.77083e-015 7.95139e-015
rhumerus 9.83468 -12.937 -67.5951
rradius 24.2802
rwrist 21.4056
rhand -4.74205 4.10629
rfingers 7.12502
rthumb 21.0412 -24.7722
lclavicle -4.77083e-015 7.95139e-015
lhumerus -42.5536 1.69154 88.1659
lradius 52.4436
lwrist 12.6395
lhand -13.7138 47.9181
lfingers 7.12502
lthumb 12.405 77.53
rfemur -25.9031 14.2866 4.68784
rtibia 36.8231
rfoot -13.4654 -2.80069
rtoes -9.72751
lfemur -20.5946 8.36016 -20.8226
ltibia 58.7422
lfoot -13.2663 -1.81245
ltoes -25.7734
3
root -0.0886748 17.0493 -19.2843 -168.478 -86.3246 166.801
lowerback 33.379 0.48701 6.44391
upperback 8.60827 2.24278 7.78535
thorax -7.6243 0.410767 4.07468
lowerneck -11.2984 -3.41911 -4.81058
upperneck 24.9183 -2.2712 -9.11358
head 9.75718 -2.75155 -2.67806
rclavicle 1.74931e-014 -2.22639e-014
rhumerus 10.4565 -17.3216 -68.4902
rradius 21.5854
rwrist 19.2605
rhand -4.49891 3.03142
rfingers 7.12502
rthumb 21.2748 -25.8209
lclavicle 1.74931e-014 -2.22639e-014
lhumerus -42.8702 4.56295 87.3823
lradius 52.7889
lwrist 10.0294
lhand -10.8637 46.8074
lfingers 7.12502
lthumb 15.1518 76.2327
rfemur -25.9673 14.8239 4.0553
rtibia 36.8274
rfoot -14.1519 -2.2078
rtoes -4.46763
lfemur -20.552 7.88882 -21.6138
ltibia 58.4749
lfoot -13.8408 -0.783325
ltoes -21.7748
4
root -0.0607524 17.0241 -19.1772 -166.323 -86.5948 164.845
lowerback 33.3732 0.485681 6.35864
upperback 8.5421 2.23717 7.8524
thorax -7.70588 0.410842 4.1934
lowerneck -10.8995 -2.97963 -4.30931
upperneck 24.674 -1.71342 -9.49822
head 9.59383 -2.47491 -2.81222
rclavicle -5.08889e-014 -1.90833e-014
rhumerus 11.4368 -23.9555 -70.2173
rradius 19.086
rwrist 19.3966
rhand -4.99063 2.65384
rfingers 7.12502
rthumb 20.8024 -26.251
lclavicle -5.08889e-014 -1.90833e-014
lhumerus -42.7874 4.03775 87.5267
lradius 52.8706
lwrist 10.7709
lhand -14.8726 47.9748
lfingers 7.12502
lthumb 11.2876 77.6511
rfemur -26.1667 15.33 3.42157
rtibia 36.8093
rfoot -14.8016 -1.8421
rtoes -1.94578
lfemur -20.6116 8.03907 -22.4327
ltibia 58.1648
lfoot -14.4654 0.83302
ltoes -24.051
5
root -0.0522595 17.0065 -19.0483 -158.637 -86.9253 157.158
lowerback 33.3375 0.323141 6.38726
upperback 8.52874 2.04557 7.87002
thorax -7.69881 0.322953 4.26587
lowerneck -11.0193 -3.27672 -4.67003
upperneck 24.7193 -2.08476 -9.34026
head 9.63205 -2.6657 -2.74356
rclavicle 4.77083e-014 7.95139e-014
rhumerus 12.6391 -31.2887 -72.0716
rradius 17.1112
rwrist 20.7573
rhand -6.11958 2.42091
rfingers 7.12502
rthumb 19.7174 -26.5991
lclavicle 4.77083e-014 7.95139e-014
lhumerus -42.9341 4.29273 87.6353
lradius 53.0223
lwrist 10.8477
lhand -11.2401 46.6344
lfingers 7.12502
lthumb 14.7892 76.0868
rfemur -25.9839 15.6143 2.49361
rtibia 36.734
rfoot -15.5681 -1.89139
rtoes -1.89152
lfemur -20.4574 8.42486 -23.4252
ltibia 57.7067
lfoot -15.0224 1.24538
ltoes -21.4403
6
root -0.027603 17.0038 -18.9535 -150.746 -87.2907 149.808
lowerback 32.9053 0.443224 6.01363
upperback 8.38877 2.10145 8.0457
thorax -7.72774 0.367712 4.62687
lowerneck -11.1973 -3.55877 -4.92058
upperneck 24.9519 -2.44234 -9.18254
head 9.74769 -2.84838 -2.70206
rclavicle 7.95139e-015 6.36111e-015
rhumerus 13.2592 -37.2 -73.1881
rradius 16.1216
rwrist 21.2248
rhand -7.86848 2.0273
rfingers 7.12502
rthumb 18.0354 -27.1565
lclavicle 7.95139e-015 6.36111e-015
lhumerus -43.181 4.82887 87.7028
lradius 53.2242
lwrist 10.7532
lhand -11.6692 45.8368
lfingers 7.12502
lthumb 14.3758 75.3191
rfemur -26.3356 15.979 1.76333
rtibia 36.6846
rfoot -16.2196 -2.68638
rtoes -3.83424
lfemur -20.7602 6.97602 -24.3582
ltibia 57.1712
lfoot -15.6639 2.57301
ltoes -18.8031
7
root -0.00711293 16.977 -18.854 -140.363 -87.3351 139.331
lowerback 33.1287 0.454965 5.62492
upperback 8.35953 2.02066 7.99521
thorax -7.86559 0.33441 4.80996
lowerneck -11.2769 -3.65303 -4.93076
upperneck 25.0937 -2.56119 -9.18568
head 9.81084 -2.91185 -2.72358
rclavicle 1.90833e-014 -1.27222e-014
rhumerus 13.7502 -42.1149 -74.3471
rradius 15.6315
rwrist 21.5134
rhand -9.80518 1.62557
rfingers 7.12502
rthumb 16.1712 -27.7199
lclavicle 1.90833e-014 -1.27222e-014
lhumerus -43.376 5.06182 87.5884
lradius 53.3774
lwrist 11.415
lhand -12.9566 46.0602
lfingers 7.12502
lthumb 13.1351 75.6265
rfemur -26.1822 16.5178 0.919425
rtibia 36.7037
rfoot -16.9834 -3.05426
rtoes -3.51049
lfemur -20.4511 7.61526 -25.1156
ltibia 56.6871
lfoot -16.3338 2.14973
ltoes -17.68
8
root 0.0103025 16.9579 -18.7428 -138.263 -88.0127 137.306
lowerback 33.1343 0.336592 6.29524
upperback 8.31502 2.10099 8.07125
thorax -7.88005 0.364854 4.50838
lowerneck -11.3517 -4.02744 -4.89687
upperneck 25.1058 -3.09413 -9.14484
head 9.81316 -3.14622 -2.77738
rclavicle 1.59028e-015 -6.04305e-014
rhumerus 13.4006 -45.7289 -74.4683
rradius 15.9837
rwrist 20.2065
rhand -12.2531 1.16778
rfingers 7.12502
rthumb 13.8131 -28.3536
lclavicle 1.59028e-015 -6.04305e-014
lhumerus -43.3251 4.48282 87.6458
lradius 53.3726
lwrist 11.9027
lhand -11.2968 46.8135
lfingers 7.12502
lthumb 14.7346 76.2698
rfemur -26.0944 16.6749 0.944725
rtibia 36.7789
rfoot -17.8162 -3.29213
rtoes -1.75021
lfemur -20.3669 7.30456 -25.163
ltibia 56.2482
lfoot -16.89 2.3381
ltoes -19.3642
9
root 0.0351137 16.9329 -18.6362 -129.047 -88.6326 128.239
lowerback 33.1422 0.115309 6.2179
upperback 8.23727 1.83622 8.50739
thorax -7.98999 0.229737 5.11608
lowerneck -11.2134 -4.10448 -5.81259
upperneck 25.0159 -3.07839 -9.00319
head 9.78971 -3.20872 -2.56958
rclavicle -1.11319e-014 -8.26944e-014
rhumerus 12.88 -46.9255 -73.9434
rradius 16.6389
rwrist 18.1979
rhand -14.0312 1.17076
rfingers 7.12502
rthumb 12.099 -28.4594
lclavicle -1.11319e-014 -8.26944e-014
lhumerus -43.6259 5.78829 87.6682
lradius 53.413
lwrist 11.8249
lhand -12.4343 46.7598
lfingers 7.12502
lthumb 13.6385 76.293
rfemur -26.1765 16.7631 0.88971
rtibia 37.0241
rfoot -18.4525 -3.93521
rtoes -1.68228
lfemur -20.3708 6.64725 -25.2989
ltibia 55.87
lfoot -17.501 2.63605
ltoes -21.8049
10
root 0.0521457 16.9168 -18.526 -102.227 -88.9138 101.55
lowerback 33.0594 0.225623 6.03151
upperback 8.18766 1.94943 8.81158
thorax -8.05273 0.284988 5.50117
lowerneck -10.9287 -3.7985 -5.56922
upperneck 24.7347 -2.6754 -9.25238
head 9.63303 -3.01118 -2.6296
rclavicle 0 7.63333e-014
rhumerus 11.0746 -47.1457 -71.8575
rradius 17.6956
rwrist 14.894
rhand -15.0463 0.913108
rfingers 7.12502
rthumb 11.1201 -28.7723
lclavicle 0 7.63333e-014
lhumerus -43.7795 6.14082 87.6431
lradius 53.2056
lwrist 10.7245
lhand -10.0738 45.8224
lfingers 7.12502
lthumb 15.9126 75.1887
rfemur -26.2399 16.5891 0.561434
rtibia 37.3035
rfoot -19.0859 -4.40007
rtoes -1.43278
lfemur -20.2371 5.56864 -25.7184
ltibia 55.3807
lfoot -18.0436 2.58855
ltoes -21.5905
11
root 0.0868015 16.8981 -18.4384 -63.5561 -88.9641 62.9704
lowerback 33.1762 0.191221 6.48768
upperback 8.09857 2.07636 8.49931
thorax -8.15101 0.352434 4.87809
lowerneck -10.6556 -4.05525 -4.71984
upperneck 24.4273 -3.27672 -8.99827
head 9.42689 -3.15092 -2.72028
rclavicle 6.36111e-015 6.36111e-015
rhumerus 8.66696 -47.5268 -70.2497
rradius 19.1336
rwrist 11.0075
rhand -16.097 0.710441
rfingers 7.12502
rthumb 10.1066 -29.0268
lclavicle 6.36111e-015 6.36111e-015
lhumerus -43.6665 4.9458 87.2541
lradius 53.1523
lwrist 11.8393
lhand -9.91421 45.3453
lfingers 7.12502
lthumb 16.0663 74.6992
rfemur -26.3829 15.4478 0.662031
rtibia 37.8144
rfoot -19.6971 -3.72564
rtoes -0.153831
lfemur -20.1831 6.013 -25.4555
ltibia 54.8897
lfoot -18.6224 0.205411
ltoes -19.1298
12
root 0.0936997 16.8693 -18.329 -39.5608 -88.6207 39.1424
lowerback 32.9102 -0.0791887 6.55414
upperback 7.96277 1.76866 8.5613
thorax -8.18291 0.215933 5.01988
lowerneck -10.1329 -4.30697 -5.41674
upperneck 23.9258 -3.69838 -8.38356
head 9.17446 -3.31128 -2.40095
rclavicle 4.77083e-015 -2.8625e-014
rhumerus 6.58814 -46.7852 -68.5745
rradius 20.7306
rwrist 7.39867
rhand -16.692 0.539846
rfingers 7.12502
rthumb 9.53256 -29.2245
lclavicle 4.77083e-015 -2.8625e-014
lhumerus -44.2414 5.65531 87.0888
lradius 53.2141
lwrist 12.2897
lhand -6.26355 44.4327
lfingers 7.12502
lthumb 19.579 73.4668
rfemur -26.5553 17.7824 0.133628
rtibia 38.351
rfoot -20.3078 -6.28433
rtoes 0.975154
lfemur -19.9309 3.59713 -26.1545
ltibia 54.2583
lfoot -18.9299 2.66552
ltoes -26.7301
13
root 0.101509 16.8215 -18.2282 -38.5758 -88.0303 38.257
lowerback 32.7907 -0.0189091 6.28619
upperback 7.97782 1.75488 8.48673
thorax -8.13232 0.22281 5.08331
lowerneck -10.2615 -4.60439 -5.63592
upperneck 23.7724 -4.11569 -8.10053
head 9.15011 -3.48312 -2.31015
rclavicle 2.22639e-014 -2.22639e-014
rhumerus 4.71425 -46.5091 -66.783
rradius 22.2189
rwrist 3.81184
rhand -17.0319 0.601744
rfingers 7.12502
rthumb 9.20457 -29.1774
lclavicle 2.22639e-014 -2.22639e-014
lhumerus -44.2535 5.61449 86.8672
lradius 53.029
lwrist 12.2342
lhand -6.14888 44.7046
lfingers 7.12502
lthumb 19.6892 73.7275
rfemur -26.801 18.0843 -0.56118
rtibia 38.9262
rfoot -20.7672 -6.40643
rtoes 2.88614
lfemur -19.7505 4.68319 -26.8697
ltibia 53.6917
lfoot -19.4398 3.44144
ltoes -36.2005
14
root 0.123586 16.8073 -18.1345 -30.8048 -87.8022 30.6669
lowerback 32.7098 0.182337 6.24059
upperback 7.95827 2.00668 8.52481
thorax -8.14167 0.347563 5.05566
lowerneck -10.3999 -4.91035 -5.32023
upperneck 23.7886 -4.56731 -8.17314
head 9.15898 -3.66954 -2.43862
rclavicle 1.59028e-014 -9.54166e-015
rhumerus 2.45668 -45.8791 -64.6275
rradius 23.693
rwrist -0.101109
rhand -17.6429 0.821795
rfingers 7.12502
rthumb 8.61496 -28.9824
lclavicle 1.59028e-014 -9.54166e-015
lhumerus -44.1828 4.99801 86.714
lradius 52.7667
lwrist 12.4699
lhand -12.835 46.9841
lfingers 7.12502
lthumb 13.2522 76.5428
rfemur -27.0773 18.7005 -0.692984
rtibia 39.3717
rfoot -21.1399 -6.51753
rtoes 5.70986
lfemur -19.6656 3.85829 -27.0983
ltibia 53.1955
lfoot -19.8476 3.70946
ltoes -34.8817
15
root 0.14479 16.8107 -18.0301 -21.1001 -87.5826 21.1092
lowerback 32.7027 0.381848 6.5067
upperback 7.87555 2.37121 8.50641
thorax -8.22892 0.521916 4.76301
lowerneck -10.818 -5.35354 -4.4755
upperneck 24.325 -5.23398 -8.46818
head 9.36691 -3.9541 -2.78534
rclavicle -5.08889e-014 -1.08139e-013
rhumerus 0.0157654 -46.3655 -62.5374
rradius 25.4178
rwrist -3.31153
rhand -17.5056 0.595006
rfingers 7.12502
rthumb 8.74744 -29.2037
lclavicle -5.08889e-014 -1.08139e-013
lhumerus -44.1627 4.08706 86.5164
lradius 52.4761
lwrist 12.7707
lhand -10.0663 45.8561
lfingers 7.12502
lthumb 15.9198 75.2217
rfemur -27.2988 19.0694 -0.593074
rtibia 39.7837
rfoot -21.0885 -6.61951
rtoes 6.15195
lfemur -19.6935 3.17857 -27.0283
ltibia 52.8491
lfoot -20.4961 1.58033
ltoes -24.2071
